HIERARCHY
ROOT joint_Root
{
	OFFSET 0.0 0.0 0.0
	CHANNELS 6 Xposition Yposition Zposition Zrotation Xrotation Yrotation 
	JOINT Hips
	{
		OFFSET 4.5925 91.4895 -427.239
		CHANNELS 6 Xposition Yposition Zposition Zrotation Xrotation Yrotation 
		JOINT Spine
		{
			OFFSET 15.7357 0.0 0.0
			CHANNELS 6 Xposition Yposition Zposition Zrotation Xrotation Yrotation 
			JOINT Chest
			{
				OFFSET 8.98455 -0.406207 0.0
				CHANNELS 6 Xposition Yposition Zposition Zrotation Xrotation Yrotation 
				JOINT Neck
				{
					OFFSET 16.3773 0.0 0.0
					CHANNELS 6 Xposition Yposition Zposition Zrotation Xrotation Yrotation 
					JOINT Head
					{
						OFFSET 6.45672 0.0 0.0
						CHANNELS 6 Xposition Yposition Zposition Zrotation Xrotation Yrotation 
						End Site
						{
							OFFSET 0.0 0.0 0.0
						}
					}
				}
				JOINT Shoulder_L
				{
					OFFSET 12.9942 -0.242716 4.98039
					CHANNELS 6 Xposition Yposition Zposition Zrotation Xrotation Yrotation 
					JOINT UpperArm_L
					{
						OFFSET 5.34809 0.0 0.0
						CHANNELS 6 Xposition Yposition Zposition Zrotation Xrotation Yrotation 
						JOINT LowerArm_L
						{
							OFFSET 24.3286 1.87007e-05 0.0
							CHANNELS 6 Xposition Yposition Zposition Zrotation Xrotation Yrotation 
							JOINT Hand_L
							{
								OFFSET 22.2916 0.0 0.0
								CHANNELS 6 Xposition Yposition Zposition Zrotation Xrotation Yrotation 
								End Site
								{
									OFFSET 0.0 0.0 0.0
								}
							}
						}
					}
				}
				JOINT Shoulder_R
				{
					OFFSET 12.9945 -0.242716 -4.98039
					CHANNELS 6 Xposition Yposition Zposition Zrotation Xrotation Yrotation 
					JOINT UpperArm_R
					{
						OFFSET -5.34813 0.0 0.0
						CHANNELS 6 Xposition Yposition Zposition Zrotation Xrotation Yrotation 
						JOINT LowerArm_R
						{
							OFFSET -24.3289 0.000322201 0.0
							CHANNELS 6 Xposition Yposition Zposition Zrotation Xrotation Yrotation 
							JOINT Hand_R
							{
								OFFSET -22.2915 -0.000108084 0.0
								CHANNELS 6 Xposition Yposition Zposition Zrotation Xrotation Yrotation 
								End Site
								{
									OFFSET 0.0 0.0 0.0
								}
							}
						}
					}
				}
			}
		}
		JOINT UpperLeg_L
		{
			OFFSET -2.19248 -6.46944 0.0
			CHANNELS 6 Xposition Yposition Zposition Zrotation Xrotation Yrotation 
			JOINT LowerLeg_L
			{
				OFFSET 39.0811 0.0 -1.23785e-05
				CHANNELS 6 Xposition Yposition Zposition Zrotation Xrotation Yrotation 
				JOINT Foot_L
				{
					OFFSET 40.9854 0.0 -1.26872e-05
					CHANNELS 6 Xposition Yposition Zposition Zrotation Xrotation Yrotation 
					JOINT Toes_L
					{
						OFFSET 11.7543 0.0 0.0
						CHANNELS 6 Xposition Yposition Zposition Zrotation Xrotation Yrotation 
						End Site
						{
							OFFSET 0.0 0.0 0.0
						}
					}
				}
			}
		}
		JOINT UpperLeg_R
		{
			OFFSET -2.19251 6.46944 0.0
			CHANNELS 6 Xposition Yposition Zposition Zrotation Xrotation Yrotation 
			JOINT LowerLeg_R
			{
				OFFSET -39.0811 -0.00228153 -0.0401928
				CHANNELS 6 Xposition Yposition Zposition Zrotation Xrotation Yrotation 
				JOINT Foot_R
				{
					OFFSET -40.9854 0.0 0.0
					CHANNELS 6 Xposition Yposition Zposition Zrotation Xrotation Yrotation 
					JOINT Toes_R
					{
						OFFSET -11.7543 0.0 0.0
						CHANNELS 6 Xposition Yposition Zposition Zrotation Xrotation Yrotation 
						End Site
						{
							OFFSET 0.0 0.0 0.0
						}
					}
				}
			}
		}
	}
}
MOTION
Frames:	6
Frame Time:	0.0333333
0.000000 0.000000 0.000000 0.000000 0.000000 -0.000000 2.082640 88.833900 27.408000 -89.971800 -8.156750 168.650000 15.735700 0.000005 -0.000001 46.708200 79.160200 -44.618500 8.984550 -0.406207 -0.000000 8.502310 -14.785700 5.298730 16.377300 -0.000001 -0.000001 0.903064 -0.208945 -2.553860 6.456720 -0.000001 -0.000000 -4.766280 6.488990 2.300620 12.994200 -0.242716 4.980390 -88.139000 -7.741710 -76.438500 5.348090 -0.000007 -0.000001 -63.269200 29.528000 -29.232700 24.328600 0.000019 0.000005 10.145700 -3.193560 -107.282000 22.291600 -0.000001 0.000005 6.472090 5.464870 -5.182950 12.994500 -0.242716 -4.980390 89.820900 0.571269 -72.543900 -5.348130 -0.000001 -0.000004 -66.332800 17.415100 34.996000 -24.328900 0.000322 -0.000009 -11.328200 -3.338390 -73.789200 -22.291500 -0.000108 -0.000004 13.359200 5.636470 -13.827800 -2.192480 -6.469440 -0.000000 -170.927000 -1.439000 8.880460 39.081100 -0.000007 -0.000012 0.520937 -0.137063 75.258800 40.985400 -0.000006 -0.000013 -5.090540 -0.442930 -21.506300 11.754300 -0.000000 0.000003 -0.001390 -0.020810 -17.423000 -2.192510 6.469440 -0.000001 -165.845000 23.292800 135.166000 -39.081100 -0.002282 -0.040193 0.211521 -0.390712 28.053900 -40.985400 0.000008 0.000006 6.515590 10.001900 -74.816000 -11.754300 -0.000006 -0.000006 -0.020581 -0.170483 -23.539500
0.000000 0.000000 0.000000 0.000000 0.000000 -0.000000 2.132390 85.675500 17.061300 -86.990000 -5.315960 166.984000 15.735700 0.000005 -0.000001 53.854000 81.027100 -50.535800 8.984550 -0.406207 -0.000000 7.134630 -10.567900 7.305000 16.377300 -0.000001 -0.000001 -0.216952 0.631540 -2.959400 6.456720 -0.000001 -0.000000 -5.752150 5.044160 1.013280 12.994200 -0.242716 4.980390 -89.115800 -3.575090 -76.098200 5.348090 -0.000007 -0.000001 -67.714800 30.017100 -17.921200 24.328600 0.000019 0.000005 11.436100 -0.146234 -90.742700 22.291600 -0.000001 0.000005 5.724120 5.458740 -4.955140 12.994500 -0.242716 -4.980390 88.378300 6.298000 -75.523200 -5.348130 -0.000001 -0.000004 -63.012500 16.846100 27.346600 -24.328900 0.000322 -0.000009 -12.238900 -3.176760 -75.665800 -22.291500 -0.000108 -0.000004 17.027400 5.657300 -15.705500 -2.192480 -6.469440 -0.000000 -169.360000 -5.279260 -3.943950 39.081100 -0.000007 -0.000012 0.900900 0.152485 99.605300 40.985400 -0.000006 -0.000013 -5.484220 -3.890730 -11.844400 11.754300 -0.000000 0.000003 -0.001540 -0.022809 -17.504200 -2.192510 6.469440 -0.000001 -164.354000 19.084700 128.974000 -39.081100 -0.002282 -0.040193 0.299210 -0.310105 43.661600 -40.985400 0.000008 0.000006 9.195710 6.844340 -59.960900 -11.754300 -0.000006 -0.000006 -0.010985 -0.110858 -21.091100
0.000000 0.000000 0.000000 0.000000 0.000000 -0.000000 2.677380 82.787200 6.592050 -83.632700 -1.351120 169.236000 15.735700 0.000005 -0.000001 70.565900 81.305000 -66.220400 8.984550 -0.406207 -0.000000 8.899090 -5.713690 9.134610 16.377300 -0.000001 -0.000001 -2.964620 1.601900 -2.199310 6.456720 -0.000001 -0.000000 -6.126870 4.709220 -1.778650 12.994200 -0.242716 4.980390 -90.183000 0.737187 -76.057600 5.348090 -0.000007 -0.000001 -68.782900 27.553700 -8.774470 24.328600 0.000019 0.000005 16.084800 7.139550 -66.696800 22.291600 -0.000001 0.000005 4.796140 5.459710 -4.987480 12.994500 -0.242716 -4.980390 87.410200 12.158900 -77.879200 -5.348130 -0.000001 -0.000004 -56.568300 19.852000 11.620500 -24.328900 0.000322 -0.000009 -13.751100 -1.999770 -81.884000 -22.291500 -0.000108 -0.000004 22.504200 5.672110 -17.713400 -2.192480 -6.469440 -0.000000 -167.742000 -8.001410 -16.196700 39.081100 -0.000007 -0.000012 0.914624 0.536051 120.371000 40.985400 -0.000006 -0.000013 -6.446400 -2.690500 -2.642600 11.754300 -0.000000 0.000003 -0.001381 -0.020677 -17.417600 -2.192510 6.469440 -0.000001 -166.653000 9.490960 133.567000 -39.081100 -0.002282 -0.040193 -0.664388 0.423612 57.605100 -40.985400 0.000008 0.000006 6.144050 -0.883562 -73.273800 -11.754300 -0.000006 -0.000006 -0.003792 -0.049256 -18.576600
0.000000 0.000000 0.000000 0.000000 0.000000 -0.000000 3.157710 80.912200 -3.773710 -82.291600 1.089660 171.617000 15.735700 0.000005 -0.000001 78.993100 80.835800 -74.522200 8.984550 -0.406207 -0.000000 10.386800 -3.373390 9.245300 16.377300 -0.000001 -0.000001 -3.123130 2.141380 -1.205580 6.456720 -0.000001 -0.000000 -6.058510 5.125240 -2.221500 12.994200 -0.242716 4.980390 -90.301400 1.175910 -75.624900 5.348090 -0.000007 -0.000001 -68.216500 27.212800 -1.157160 24.328600 0.000019 0.000005 17.877100 20.170200 -43.098700 22.291600 -0.000001 0.000005 -0.294073 5.503530 -6.708700 12.994500 -0.242716 -4.980390 87.440000 13.831600 -79.406900 -5.348130 -0.000001 -0.000004 -51.902500 22.767500 -13.919800 -24.328900 0.000322 -0.000009 -10.741100 -0.381521 -87.994700 -22.291500 -0.000108 -0.000004 22.528200 5.676000 -18.477000 -2.192480 -6.469440 -0.000000 -168.581000 -5.957700 -33.043200 39.081100 -0.000007 -0.000012 0.269579 0.260075 133.969000 40.985400 -0.000006 -0.000013 -9.890700 2.603640 7.483120 11.754300 -0.000000 0.000003 -0.001432 -0.021368 -17.445700 -2.192510 6.469440 -0.000001 -166.507000 8.735120 142.034000 -39.081100 -0.002282 -0.040193 -0.532507 0.268361 63.391400 -40.985400 0.000008 0.000006 8.834910 -2.501830 -84.594800 -11.754300 -0.000006 -0.000006 -0.003442 -0.045510 -18.424100
0.000000 0.000000 0.000000 0.000000 0.000000 -0.000000 2.571160 80.751300 -15.280000 -84.556000 4.536130 173.025000 15.735700 0.000005 -0.000001 88.845500 80.873000 -85.444500 8.984550 -0.406207 -0.000000 10.502000 -0.283914 6.823930 16.377300 -0.000001 -0.000001 -2.551060 1.295280 -0.400349 6.456720 -0.000001 -0.000000 -5.536620 3.541320 -2.373910 12.994200 -0.242716 4.980390 -90.118100 0.422549 -74.371300 5.348090 -0.000007 -0.000001 -67.512700 32.665300 11.742100 24.328600 0.000019 0.000005 26.828400 27.759800 -47.360700 22.291600 -0.000001 0.000005 -7.125830 5.578770 -10.141900 12.994500 -0.242716 -4.980390 88.408000 10.561900 -81.380400 -5.348130 -0.000001 -0.000004 -52.145600 20.573700 -35.537100 -24.328900 0.000322 -0.000009 -4.024950 0.479590 -96.793900 -22.291500 -0.000108 -0.000004 19.310800 5.672160 -17.740000 -2.192480 -6.469440 -0.000000 -174.313000 -6.084270 -46.018600 39.081100 -0.000007 -0.000012 -0.206494 -0.219197 136.711000 40.985400 -0.000006 -0.000013 -6.091610 4.663760 1.786740 11.754300 -0.000000 0.000003 -0.002392 -0.033531 -17.940300 -2.192510 6.469440 -0.000001 -171.646000 9.383670 154.359000 -39.081100 -0.002282 -0.040193 0.220785 -0.119492 61.226500 -40.985400 0.000008 0.000006 11.358200 -1.521970 -92.623900 -11.754300 -0.000006 -0.000006 -0.005322 -0.064547 -19.199600
0.000000 0.000000 0.000000 0.000000 0.000000 -0.000000 1.131820 83.272400 -27.635700 -88.397300 9.547380 171.545000 15.735700 0.000005 -0.000001 108.234000 81.480300 -106.792000 8.984550 -0.406207 -0.000000 8.379180 5.314400 2.492290 16.377300 -0.000001 -0.000001 -2.108760 0.179516 0.681500 6.456720 -0.000001 -0.000000 -5.637080 -0.297831 -1.688790 12.994200 -0.242716 4.980390 -89.560100 -1.322910 -71.611600 5.348090 -0.000007 -0.000001 -67.372900 41.003000 23.078100 24.328600 0.000019 0.000005 16.930500 13.768800 -51.987700 22.291600 -0.000001 0.000005 -5.336810 5.576550 -10.027900 12.994500 -0.242716 -4.980390 89.422700 4.561150 -82.778800 -5.348130 -0.000001 -0.000004 -56.761100 17.075400 -46.781200 -24.328900 0.000322 -0.000009 -4.446320 1.423350 -107.705000 -22.291500 -0.000108 -0.000004 19.683400 5.652560 -15.269100 -2.192480 -6.469440 -0.000000 177.237000 -6.629010 -54.075600 39.081100 -0.000007 -0.000012 -0.260454 -0.206414 128.400000 40.985400 -0.000006 -0.000013 2.234660 0.894458 -17.898600 11.754300 -0.000000 0.000003 -0.001332 -0.020022 -17.390900 -2.192510 6.469440 -0.000001 178.970000 10.923200 165.760000 -39.081100 -0.002282 -0.040193 0.098418 -0.076902 51.061400 -40.985400 0.000008 0.000006 11.786500 7.016620 -87.673100 -11.754300 -0.000006 -0.000006 -0.031181 -0.222827 -25.704700
